<svg xmlns="http://www.w3.org/2000/svg" viewBox="0 0 1333.3333 449.52933">
  <defs>
    <clipPath clipPathUnits="userSpaceOnUse" id="c2">
      <path d="M 0,337.147 H 1000 V 0 H 0 Z" transform="translate(-971.66672,-300.16611)" />
    </clipPath>
    <clipPath clipPathUnits="userSpaceOnUse" id="c5">
      <path d="M 0,337.147 H 1000 V 0 H 0 Z" transform="translate(-227.34171,-178.5929)" />
    </clipPath>
    <clipPath clipPathUnits="userSpaceOnUse" id="c7">
      <path d="M 0,337.147 H 1000 V 0 H 0 Z" transform="translate(-390.57151,-178.5929)" />
    </clipPath>
    <clipPath clipPathUnits="userSpaceOnUse" id="c9">
      <path d="M 0,337.147 H 1000 V 0 H 0 Z" />
    </clipPath>
    <clipPath clipPathUnits="userSpaceOnUse" id="c11">
      <path d="M 0,337.147 H 1000 V 0 H 0 Z" transform="translate(-685.72132,-240.29981)" />
    </clipPath>
    <clipPath clipPathUnits="userSpaceOnUse" id="c13">
      <path d="M 0,337.147 H 1000 V 0 H 0 Z" transform="translate(-799.70649,-133.4539)" />
    </clipPath>
    <clipPath clipPathUnits="userSpaceOnUse" id="c15">
      <path d="M 0,337.147 H 1000 V 0 H 0 Z" transform="translate(-130.9645,-302.10621)" />
    </clipPath>
  </defs>

  <!-- Corner mark — teal -->
  <path
    d="M 0,0 V -111.338 H -6.98 C -22.427,-61.562 -61.676,-22.314 -111.338,-6.98 V 0 Z"
    fill="#82F4D6"
    transform="matrix(1.3333333,0,0,-1.3333333,1295.5556,49.307867)"
    clip-path="url(#c2)" />
  <path
    d="m 964.687,188.828 h 6.98 v 54.5 c -27.388,30.426 -66.932,49.681 -111.074,49.758 v 0 c 49.533,-15.394 88.674,-54.573 104.094,-104.258"
    fill="#82F4D6"
    transform="matrix(1.3333333,0,0,-1.3333333,0,449.52933)" />

  <!-- J — white -->
  <path
    d="m 0,0 v -147.526 c 0,-9.109 -2.733,-16.3 -8.198,-21.573 -5.081,-4.89 -12.607,-7.526 -22.627,-7.814 -10.019,0.288 -17.545,2.924 -22.675,7.814 -5.407,5.218 -8.119,12.328 -8.176,21.301 h -41.622 c 0.026,-10.146 1.455,-19.218 4.401,-27.293 3.451,-9.588 8.964,-17.737 16.538,-24.401 13.519,-11.937 30.681,-18.121 51.534,-18.504 20.854,0.383 38.016,6.567 51.534,18.504 7.527,6.664 13.04,14.813 16.539,24.401 2.972,8.15 4.411,17.306 4.411,27.565 L 41.659,0 Z"
    fill="#FFFFFF"
    transform="matrix(1.3333333,0,0,-1.3333333,174.61933,46.721067)"
    clip-path="url(#c15)" />

  <!-- e (first) — white -->
  <path
    d="m 0,0 h 77.512 c -2.233,10.337 -6.84,18.033 -13.83,23.103 -6.994,5.061 -14.948,7.598 -23.861,7.598 -10.538,0 -19.255,-2.687 -26.142,-8.057 C 6.788,17.275 2.228,9.728 0,0 m 0.609,-30.397 c 5.266,-19.049 19.554,-28.571 42.859,-28.571 14.995,0 26.338,5.061 34.044,15.196 l 31.614,-18.239 c -15,-21.685 -37.087,-32.523 -66.267,-32.523 -25.13,0 -45.289,7.599 -60.49,22.799 -15.196,15.197 -22.798,34.349 -22.798,57.447 0,22.897 7.495,41.998 22.494,57.302 14.995,15.294 34.245,22.948 57.756,22.948 22.288,0 40.677,-7.705 55.167,-23.103 14.489,-15.402 21.736,-34.451 21.736,-57.147 0,-5.065 -0.51,-10.44 -1.522,-16.109 z"
    fill="#FFFFFF"
    transform="matrix(1.3333333,0,0,-1.3333333,303.12227,211.40547)"
    clip-path="url(#c5)" />

  <!-- e (second) — white -->
  <path
    d="m 0,0 h 77.512 c -2.233,10.337 -6.84,18.033 -13.83,23.103 -6.994,5.061 -14.948,7.598 -23.861,7.598 -10.538,0 -19.255,-2.687 -26.142,-8.057 C 6.788,17.275 2.228,9.728 0,0 m 0.609,-30.397 c 5.266,-19.049 19.554,-28.571 42.859,-28.571 14.995,0 26.338,5.061 34.044,15.196 l 31.614,-18.239 c -15,-21.685 -37.087,-32.523 -66.267,-32.523 -25.13,0 -45.289,7.599 -60.49,22.799 -15.196,15.197 -22.798,34.349 -22.798,57.447 0,22.897 7.495,41.998 22.494,57.302 14.995,15.294 34.245,22.948 57.756,22.948 22.288,0 40.677,-7.705 55.167,-23.103 14.489,-15.402 21.736,-34.451 21.736,-57.147 0,-5.065 -0.51,-10.44 -1.522,-16.109 z"
    fill="#FFFFFF"
    transform="matrix(1.3333333,0,0,-1.3333333,520.762,211.40547)"
    clip-path="url(#c7)" />

  <!-- l — white -->
  <path
    d="m 522.491,302.106 h 39.212 V 88.315 h -39.212 z"
    fill="#FFFFFF"
    transform="matrix(1.3333333,0,0,-1.3333333,0,449.52933)"
    clip-path="url(#c9)" />

  <!-- u — teal -->
  <path
    d="M 0,0 H 39.212 V -151.985 H 4.794 L 0,-134.963 c -9.527,-14.185 -24.625,-21.277 -45.294,-21.277 -16.619,0 -30.345,5.571 -41.187,16.717 -10.843,11.142 -16.259,26.544 -16.259,46.202 V 0 h 39.212 v -88.457 c 0,-10.135 2.734,-17.883 8.207,-23.253 5.468,-5.37 12.766,-8.052 21.886,-8.052 10.13,0 18.234,3.136 24.315,9.419 6.077,6.283 9.12,15.702 9.12,28.272 z"
    fill="#82F4D6"
    transform="matrix(1.3333333,0,0,-1.3333333,914.29507,129.1296)"
    clip-path="url(#c11)" />

  <!-- p — teal -->
  <path
    d="m 0,0 c 7.902,-8.005 17.935,-12.008 30.093,-12.008 12.157,0 22.237,4.003 30.242,12.008 8.006,8.001 12.008,18.286 12.008,30.851 0,12.565 -4.002,22.846 -12.008,30.856 C 52.33,69.708 42.25,73.71 30.093,73.71 17.935,73.71 7.902,69.708 0,61.707 -7.902,53.697 -11.858,43.416 -11.858,30.851 -11.858,18.286 -7.902,8.001 0,0 m 37.386,111.101 c 20.468,0 37.944,-7.752 52.433,-23.253 14.489,-15.505 21.736,-34.502 21.736,-56.997 0,-22.49 -7.247,-41.492 -21.736,-56.992 -14.489,-15.501 -31.965,-23.254 -52.433,-23.254 -21.277,0 -37.69,7.397 -49.244,22.191 v -78.729 h -39.208 v 212.779 h 34.414 l 4.794,-17.935 c 11.554,14.789 27.967,22.19 49.244,22.19"
    fill="#82F4D6"
    transform="matrix(1.3333333,0,0,-1.3333333,1066.2753,271.5908)"
    clip-path="url(#c13)" />
</svg>
